<?xml version="1.0" encoding="UTF-8" standalone="no"?>
<svg
   xmlns:dc="http://purl.org/dc/elements/1.1/"
   xmlns:cc="http://creativecommons.org/ns#"
   xmlns:rdf="http://www.w3.org/1999/02/22-rdf-syntax-ns#"
   xmlns:svg="http://www.w3.org/2000/svg"
   xmlns="http://www.w3.org/2000/svg"
   xmlns:sodipodi="http://sodipodi.sourceforge.net/DTD/sodipodi-0.dtd"
   xmlns:inkscape="http://www.inkscape.org/namespaces/inkscape"
   height="93.076958"
   viewBox="0 0 132.29172 24.626613"
   width="500.00018"
   version="1.1"
   id="svg60"
   sodipodi:docname="logo.svg"
   inkscape:version="0.92.3 (2405546, 2018-03-11)">
  <metadata
     id="metadata66">
    <rdf:RDF>
      <cc:Work
         rdf:about="">
        <dc:format>image/svg+xml</dc:format>
        <dc:type
           rdf:resource="http://purl.org/dc/dcmitype/StillImage" />
      </cc:Work>
    </rdf:RDF>
  </metadata>
  <defs
     id="defs64" />
  <sodipodi:namedview
     pagecolor="#ffffff"
     bordercolor="#666666"
     borderopacity="1"
     objecttolerance="10"
     gridtolerance="10"
     guidetolerance="10"
     inkscape:pageopacity="0"
     inkscape:pageshadow="2"
     inkscape:window-width="1920"
     inkscape:window-height="1050"
     id="namedview62"
     showgrid="false"
     inkscape:zoom="7.3539078"
     inkscape:cx="75.802008"
     inkscape:cy="45.96341"
     inkscape:window-x="1366"
     inkscape:window-y="0"
     inkscape:window-maximized="1"
     inkscape:current-layer="svg60" />
  <rect
     fill="#fff"
     height="24.626614"
     opacity="0"
     rx=".035384"
     ry=".013174"
     width="132.29172"
     id="rect2" />
  <g
     fill="#fff"
     stroke-width=".218037"
     transform="matrix(.74806504923 0 0 .74806504923 39.13007074605 -26.95388379926)"
     id="g40">
    <path
       d="m13.404236 48.735626q-1.255894.06977-1.37218.06977-.279088 0-.558175-.337231-.279088-.348859-.279088-.720976 0-.569803 3.314164-.569803 1.697783 0 2.500159.348859.802377.348859.802377.848891 0 .151173-.17443.290716-.17443.127915-.441888.127915-.267459 0-.976807-.03488-.709347-.03489-1.290779-.04651.04651.139544.04651.325602 0 .186058-.139544.732605-.127915.546546-.372116 1.523352-.244202.965178-.534918 2.348987-.290716 1.37218-.407003 1.639639-.104657.25583-.209315.25583-.244202 0-.616318-.441888-.360488-.453518-.360488-.732605 0-.279088.476774-2.302472.476775-2.035013.593061-3.325793z"
       id="path4" />
    <path
       d="m18.822276 54.422034q.627947-.279087 1.093093-1.127979.465146-.848891.465146-1.593124 0-.744233-.209316-1.023321-.500032.290716-1.000063 1.221008-.488403.930292-.488403 1.639639 0 .697719.139543.883777zm-1.697782-.767491q0-1.45358.895406-2.755989.907034-1.302408 1.790811-1.302408.883777 0 1.488467.627947.604689.616318.604689 1.500095 0 .872149-.418631 1.779183-.418631.907034-1.174493 1.511724-.755862.593061-1.616382.593061-.639575 0-1.104721-.569804-.465146-.569803-.465146-1.383809z"
       id="path6" />
    <path
       d="m26.695778 49.619403q.43026 0 .918663.767491.500032.767491.500032 1.534981 0 .465146-.395374 1.104722-.395374.639575-1.000063 1.209379-.593061.558175-1.383809.953549-.77912.395374-1.488467.395374h-.139544q-.732604 3.046705-1.034949 3.046705-.244202 0-.511661-.407003-.279087-.407002-.279087-.674461 0-.267459.337231-1.639639 1.000063-4.070026 1.000063-6.139925 0-.34886.337231-.34886.279087 0 .709347.313974.43026.313973.534918.814005.988435-.930292 1.895469-.930292zm-2.628074 4.581687q.907035-.17443 1.709411-1.000064.814005-.825634.814005-1.430323 0-.60469-.33723-.60469-.488403 0-1.03495.558175-.220944.232573-.488403.68609-.267459.453518-.465146 1.058207z"
       id="path8" />
    <path
       d="m39.497464 55.177896q0 .476775-.662832.476775-.907035 0-1.907098-.941921-.988435-.94192-1.407066-1.965241-.186059.558175-.255831.755862-.06977.197687-.209315.627947-.139544.43026-.220945.639575-.06977.209316-.162801.441889-.174429.441889-.33723.441889-.267459 0-.651205-.441889-.372116-.453517-.372116-.732605 0-.279087.267459-1.034949.790748-2.314101.907034-4.221199-.220944-.174429-.395374-.488403-.17443-.313973-.17443-.523289 0-.348859.895406-.732604.907035-.383746 2.081528-.383746 1.186122 0 1.97687.558175.790747.558175.790747 1.453581 0 .662833-.395373 1.279151-.383746.60469-.848892.953549-.453517.337231-.848891.616318-.383745.279088-.383745.360488 0 .279088.186058.534918.186059.244201.523289.581432.337231.325602.581433.558175.244201.220944.395374.372117.162801.151172.313973.313973.313973.302345.313973.500032zm-1.62801-5.953867q0-.488403-.953549-.488403-.453517 0-1.081464.25583.290716.441889.290716.814006 0 .674461-.186058 1.488466.127915-.09303.476774-.325602.34886-.244201.534918-.383745.197687-.151172.441889-.383745.476774-.453518.476774-.976807z"
       id="path10" />
    <path
       d="m45.13227 52.305621q.209316.186058.209316.33723 0 .151173-.139544.627947-.139543.476775-.186058.744233-.04652.255831-.0814.407003-.02326.151173-.03489.244202-.01163.0814-.04651.209315-.02326.127915-.04651.209316-.01163.06977-.04651.17443-.02326.09303-.05814.151172-.03489.04651-.0814.104658-.06977.09303-.232573.09303-.162801 0-.407003-.325602-.232572-.325602-.348859-.790748-1.093093 1.11635-1.837326 1.11635-.500032 0-1.081464-.546546-.581432-.558175-.581432-1.104722 0-.558175.500031-1.581496.500032-1.02332 1.360552-1.895469.872148-.872148 1.72104-.872148.488403 0 1.127978.569803.639576.569804.639576 1.046578 0 .465146-.34886 1.081465zm-3.383936 1.837326q.465146 0 1.232637-.627947.779119-.639576.965178-1.604753.01163-.139544.197686-.162801-.03489-.662833-.220944-.662833-.465146 0-1.046578.604689-.569804.60469-.94192 1.29078-.360488.68609-.360488 1.011692 0 .09303.02326.127915.03489.02326.151172.02326z"
       id="path12" />
    <path
       d="m49.129798 50.991584q-.09303.313973-.279087.883777-.17443.558175-.441889 1.407066-.25583.848891-.25583.907034 0 .04651.186058.04651.197687 0 .918663-.25583.720976-.267459.848892-.267459.290716 0 .290716.395374 0 .395374-.77912.953549-.779119.546546-1.62801.546546-.372117 0-.883777-.407003-.51166-.407002-.51166-.825633 0-.34886.348859-1.46521.360488-1.127979.488403-1.54661-.453517.127915-.68609.127915-.232573 0-.488403-.313973-.25583-.325602-.25583-.616318 0-.372117 1.80244-.627947.220944-1.081464.220944-1.872212 0-.34886.348859-.34886.302345 0 .767491.372117.476774.360488.476774.720976 0 .34886-.151172.988435.558175-.02326.848891-.02326.872149 0 .872149.395374 0 .25583-.511661.441888-.500032.17443-1.54661.383746z"
       id="path14" />
    <path
       d="m56.57413 51.782331q0 .569804-.77912 1.023321-.76749.453518-1.581496.453518-.814005 0-1.337294-.116287-.104658.313973-.104658.627947 0 .313973.104658.453517.104658.127915.523289.127915.872149 0 1.488467-.162801.627947-.162801.651204-.162801.476775 0 .476775.313974 0 .453517-.755862.860519-.744234.407003-1.732669.407003-.976806 0-1.569867-.616318-.593061-.616318-.593061-1.453581 0-.848891.488403-1.767554.500032-.918663 1.244265-1.534981.744234-.627947 1.476838-.627947.744234 0 1.372181.732604.627947.720976.627947 1.441952zm-1.348923-.186058q0-.116286-.244202-.337231-.244201-.220944-.465146-.220944-.209315 0-.546546.313974-.337231.302344-.639576.790748.104658.01163.302345.01163 1.593125 0 1.593125-.558175z"
       id="path16" />
    <path
       d="m62.007979 46.351754q.279088 0 .732605.51166.453517.500032.453517.941921 0 .220944-.407003 1.837326-.407002 1.616381-.488403 1.953612-.930292 4.011883-1.360551 4.011883-.244202 0-.546547-.290716-.302345-.290716-.302345-.569804 0-.05814.01163-.09303-1.162865.953549-1.674525.953549-.500032 0-.976806-.534918-.465146-.546546-.465146-.988435 0-.441888.116286-.976806.127916-.546546.383746-1.151236.25583-.604689.581432-1.127978.337231-.534918.802377-.872149.476774-.348859.976806-.348859.744233 0 1.221008.755862.627947-2.755989.604689-3.663024 0-.348859.337231-.348859zm-3.430451 7.779564q.290717 0 .976807-.500032.697718-.500032 1.034949-1.267522-.01163-.09303-.01163-.407003 0-.313973-.209316-.593061-.209316-.279087-.383745-.279087-.34886 0-.674462.372116-.313973.372117-.500032.883777-.395374 1.081465-.395374 1.63964 0 .09303.02326.127915.03489.02326.139543.02326z"
       id="path18" />
    <path
       d="m68.762224 55.538384q-.267459 0-.639576-.441888-.372116-.453518-.372116-.732605 0-.279088.279087-1.151236.86052-2.674589.918663-4.686344-.395374-.418632-.395374-.662833 0-.383745.907035-.720976.918663-.34886 1.744296-.34886 1.395438 0 2.197815.651205.814005.651204.814005 1.662896 0 1.29078-1.267523 2.337358-1.255893 1.046578-3.17462 1.430323-.546546 1.965241-.720976 2.314101-.162801.348859-.290716.348859zm3.802567-6.395755q0-.372117-.267459-.60469-.267459-.244201-.720976-.244201-.453517 0-1.255894.43026.232573.407002.232573.732604 0 .639576-.33723 1.89547 1.046578-.418632 1.697782-1.000064.651204-.593061.651204-1.209379z"
       id="path20" />
    <path
       d="m74.807119 51.573016-.06977-1.314037q0-.651204.407003-.651204.232573 0 .453517.174429.232573.17443.348859.546547.395374-.34886.86052-.558175.476774-.220945.837263-.220945.848891 0 .848891.407003 0 .209316-.0814.313974-.06977.09303-.116286.139543-.03489.04651-.139544.127915-.09303.06977-.139544.104658-.267459.17443-.383745.244202-.523289.325602-.895406.790748-.372117.453517-.558175 1.267522-.313973 1.337294-.616318 2.000127-.290716.651204-.662833.651204-.360488 0-.546546-.348859-.17443-.348859-.17443-.651204 0-.313974.220944-.930292.232573-.616318.313974-1.058207.09303-.453517.09303-1.034949z"
       id="path22" />
    <path
       d="m80.008942 54.422034q.627947-.279087 1.093093-1.127979.465145-.848891.465145-1.593124 0-.744233-.209315-1.023321-.500032.290716-1.000064 1.221008-.488403.930292-.488403 1.639639 0 .697719.139544.883777zm-1.697783-.767491q0-1.45358.895406-2.755989.907035-1.302408 1.790812-1.302408.883777 0 1.488466.627947.60469.616318.60469 1.500095 0 .872149-.418631 1.779183-.418632.907034-1.174494 1.511724-.755862.593061-1.616381.593061-.639576 0-1.104722-.569804-.465146-.569803-.465146-1.383809z"
       id="path24" />
    <path
       d="m88.161527 48.677483q-.04651-.267459-.151172-.488403-.104658-.220944-.25583-.220944-.139544 0-.290716.209315-.139544.209316-.279088.68609-.220944.744234-.441888 1.732669.883777-.04651 1.325665-.04651.453517 0 .674462.139544.220944.127915.220944.313973 0 .360488-.651204.558175-.651204.197687-1.883841.383746-.581432 2.430387-.814005 3.046705-.232573.604689-.51166.604689-.220945 0-.523289-.360488-.290717-.372116-.290717-.558175 0-.186058.0814-.441888.360488-1.011692.546546-1.953613-.348859.09303-.627947.09303-.267458 0-.534917-.244201-.267459-.25583-.267459-.616318 0-.418632 1.674525-.720976.337231-2.2327.94192-3.232764.60469-1.011692 1.744297-1.011692.546546 0 1.000064.534918.453517.534917.453517 1.267522 0 .476774-.151173.755862-.151172.267459-.395374.267459-.244201 0-.395374-.220944-.139543-.220945-.197687-.476775z"
       id="path26" />
    <path
       d="m93.935702 51.782331q0 .569804-.779119 1.023321-.767491.453518-1.581496.453518-.814005 0-1.337295-.116287-.104657.313973-.104657.627947 0 .313973.104657.453517.104658.127915.52329.127915.872148 0 1.488466-.162801.627947-.162801.651204-.162801.476775 0 .476775.313974 0 .453517-.755862.860519-.744233.407003-1.732668.407003-.976807 0-1.569868-.616318-.593061-.616318-.593061-1.453581 0-.848891.488404-1.767554.500031-.918663 1.244265-1.534981.744233-.627947 1.476838-.627947.744233 0 1.37218.732604.627947.720976.627947 1.441952zm-1.348923-.186058q0-.116286-.244202-.337231-.244201-.220944-.465145-.220944-.209316 0-.546547.313974-.337231.302344-.639575.790748.104657.01163.302344.01163 1.593125 0 1.593125-.558175z"
       id="path28" />
    <path
       d="m98.113654 49.619403q.441888 0 .872148.523289.43026.523289.43026.941921 0 .279087-.244202.279087-.139543 0-.407002-.104658-.267459-.116286-.546546-.116286-.267459 0-.802377.186058-.523289.186059-.523289.488403 0 .116287.313973.337231.313974.220944.68609.453517.372117.232573.686091.651205.313973.407002.313973.895405 0 .476775-.709347.965178-.697719.488403-1.651268.488403-.94192 0-1.616382-.43026-.674461-.43026-.674461-.883777 0-.453517.372116-.453517.151173 0 .360488.116286.581433.337231 1.441952.337231.872149 0 .872149-.232573 0-.232573-.337231-.51166-.325602-.290716-.720976-.534918-.383745-.244202-.720976-.593061-.325602-.360488-.325602-.697719 0-.627947 1.139607-1.360551 1.139608-.744234 1.790812-.744234z"
       id="path30" />
    <path
       d="m103.54187 49.619403q.44189 0 .87215.523289.43026.523289.43026.941921 0 .279087-.2442.279087-.13955 0-.40701-.104658-.26746-.116286-.54654-.116286-.26746 0-.80238.186058-.52329.186059-.52329.488403 0 .116287.31397.337231.31398.220944.68609.453517.37212.232573.68609.651205.31398.407002.31398.895405 0 .476775-.70935.965178-.69772.488403-1.65127.488403-.94192 0-1.61638-.43026-.67446-.43026-.67446-.883777 0-.453517.37212-.453517.15117 0 .36048.116286.58144.337231 1.44196.337231.87214 0 .87214-.232573 0-.232573-.33723-.51166-.3256-.290716-.72097-.534918-.38375-.244202-.72098-.593061-.3256-.360488-.3256-.697719 0-.627947 1.13961-1.360551 1.1396-.744234 1.79081-.744234z"
       id="path32" />
    <path
       d="m106.90018 54.422034q.62795-.279087 1.0931-1.127979.46514-.848891.46514-1.593124 0-.744233-.20931-1.023321-.50003.290716-1.00007 1.221008-.4884.930292-.4884 1.639639 0 .697719.13954.883777zm-1.69778-.767491q0-1.45358.89541-2.755989.90703-1.302408 1.79081-1.302408.88378 0 1.48847.627947.60469.616318.60469 1.500095 0 .872149-.41864 1.779183-.41863.907034-1.17449 1.511724-.75586.593061-1.61638.593061-.63958 0-1.10472-.569804-.46515-.569803-.46515-1.383809z"
       id="path34" />
    <path
       d="m111.19207 51.573016-.0698-1.314037q0-.651204.407-.651204.23257 0 .45352.174429.23257.17443.34885.546547.39538-.34886.86052-.558175.47678-.220945.83727-.220945.84889 0 .84889.407003 0 .209316-.0814.313974-.0698.09303-.11629.139543-.0349.04651-.13954.127915-.093.06977-.13955.104658-.26745.17443-.38374.244202-.52329.325602-.89541.790748-.37211.453517-.55817 1.267522-.31398 1.337294-.61632 2.000127-.29072.651204-.66283.651204-.36049 0-.54655-.348859-.17443-.348859-.17443-.651204 0-.313974.22095-.930292.23257-.616318.31397-1.058207.093-.453517.093-1.034949z"
       id="path36" />
    <path
       d="m118.46378 49.619403q.44189 0 .87215.523289.43026.523289.43026.941921 0 .279087-.2442.279087-.13955 0-.407-.104658-.26746-.116286-.54655-.116286-.26746 0-.80238.186058-.52329.186059-.52329.488403 0 .116287.31398.337231.31397.220944.68609.453517.37211.232573.68609.651205.31397.407002.31397.895405 0 .476775-.70935.965178-.69772.488403-1.65126.488403-.94192 0-1.61639-.43026-.67446-.43026-.67446-.883777 0-.453517.37212-.453517.15117 0 .36049.116286.58143.337231 1.44195.337231.87215 0 .87215-.232573 0-.232573-.33723-.51166-.3256-.290716-.72098-.534918-.38374-.244202-.72097-.593061-.32561-.360488-.32561-.697719 0-.627947 1.13961-1.360551 1.13961-.744234 1.79081-.744234z"
       id="path38" />
  </g>
  <g
     transform="matrix(.34960488 0 0 .34960488 -.0905429018 2.93578364231)"
     id="g46">
    <path
       d="m101.01705 9.2597704h4.56108c8.46673 0 15.2829 6.8161706 15.2829 15.2828936v4.561079c0 8.466722-6.81617 15.282893-15.2829 15.282893h-4.56108c-8.466718 0-15.282889-6.816171-15.282889-15.282893v-4.561079c0-8.466723 6.816171-15.2828936 15.282889-15.2828936z"
       id="path42"
       stroke-linecap="round"
       stroke-width=".283482"
       stroke="#195f21"
       fill="#1c5e20" />
    <path
       d="m95.704938 41.770004q-.914299 0-2.186367-1.510581-1.272068-1.550333-1.272068-2.504384 0-.954051.954051-3.935461 2.941657-9.142989 3.140418-16.020108-1.351572-1.431076-1.351572-2.265871 0-1.31182 3.100666-2.464632 3.140414-1.192564 5.962814-1.192564 4.77026 0 7.51316 2.226119 2.78265 2.22612 2.78265 5.684555 0 4.412486-4.33299 7.990178-4.29323 3.577691-10.852327 4.889512-1.86835 6.718109-2.464632 7.910673-.55653 1.192564-.993803 1.192564zm12.998942-21.863671q0-1.272068-.9143-2.06711-.91429-.834795-2.46463-.834795-1.55033 0-4.29323 1.470829.79505 1.391324.79505 2.504384 0 2.186367-1.15282 6.479597 3.5777-1.431077 5.80381-3.418683 2.22612-2.027359 2.22612-4.134222z"
       id="path44"
       fill="#fff" />
  </g>
  <g
     transform="matrix(.34960488 0 0 .34960488 -.01507229794 2.93578364231)"
     id="g52">
    <path
       d="m63.167563 9.2597704h4.561079c8.466723 0 15.282894 6.8161706 15.282894 15.2828936v4.561079c0 8.466722-6.816171 15.282893-15.282894 15.282893h-4.561079c-8.466722 0-15.282893-6.816171-15.282893-15.282893v-4.561079c0-8.466723 6.816171-15.2828936 15.282893-15.2828936z"
       id="path48"
       fill="#1c5e20" />
    <path
       d="m75.743906 39.82215q0 1.629837-2.265872 1.629837-3.100666 0-6.519349-3.219922-3.378931-3.219923-4.810007-6.71811-.636034 1.908102-.874547 2.583888-.238513.675787-.715539 2.146615-.477025 1.470829-.75529 2.186367-.238513.715539-.55653 1.510581-.596282 1.510581-1.152811 1.510581-.914299 0-2.22612-1.510581-1.272068-1.550333-1.272068-2.504384 0-.954051.914299-3.537939 2.703145-7.910674 3.100666-14.430023-.75529-.596282-1.351572-1.669589-.596282-1.073308-.596282-1.788846 0-1.192564 3.060914-2.504384 3.100666-1.31182 7.115631-1.31182 4.054717 0 6.757862 1.908102 2.703144 1.908102 2.703144 4.969016 0 2.265871-1.351572 4.372734-1.31182 2.067111-2.901905 3.259675-1.550333 1.152811-2.901906 2.106862-1.31182.954051-1.31182 1.232316 0 .954051.636034 1.828598.636034.834795 1.788846 1.987607 1.152812 1.113059 1.987606 1.908102.834795.75529 1.351573 1.272068.556529.516778 1.073307 1.073307 1.073308 1.033556 1.073308 1.709342zm-5.565298-20.35309q0-1.669589-3.259675-1.669589-1.550333 0-3.696948.874547.993803 1.51058.993803 2.782649 0 2.305623-.636034 5.088272.437274-.318017 1.629838-1.11306 1.192563-.834794 1.828597-1.31182.675787-.516777 1.510581-1.31182 1.629838-1.550333 1.629838-3.339179z"
       id="path50"
       fill="#fff" />
  </g>
  <g
     transform="matrix(.34960488 0 0 .34960488 -.0905429018 2.93578364231)"
     id="g58">
    <path
       d="m25.749818 9.2597704h4.561079c8.466723 0 15.282893 6.8161706 15.282893 15.2828936v4.561079c0 8.466722-6.81617 15.282893-15.282893 15.282893h-4.561079c-8.466723 0-15.282893-6.816171-15.282893-15.282893v-4.561079c0-8.466723 6.81617-15.2828936 15.282893-15.2828936z"
       fill="#1c5e20"
       id="path54" />
    <path
       d="m24.273781 17.859098q-4.29323.238513-4.690751.238513-.954051 0-1.908102-1.152812-.954051-1.192564-.954051-2.464632 0-1.947854 11.329356-1.947854 5.803811 0 8.546708 1.192564 2.742897 1.192564 2.742897 2.901905 0 .516778-.596282.993803-.596282.437274-1.510581.437274-.914299 0-3.339179-.119256-2.42488-.119257-4.412486-.159009.159009.477026.159009 1.11306 0 .636034-.477026 2.504384-.437273 1.86835-1.272068 5.207529-.834795 3.299426-1.828598 8.02993-.993803 4.690751-1.391325 5.60505-.357769.874546-.715538.874546-.834795 0-2.106863-1.51058-1.232316-1.550333-1.232316-2.504384 0-.954052 1.629838-7.870922 1.629837-6.956622 2.027358-11.369109z"
       fill="#f9f9f9"
       id="path56" />
  </g>
</svg>
